<?xml version="1.0" encoding="UTF-8"?>
<svg id="Layer_2" xmlns="http://www.w3.org/2000/svg" viewBox="0 0 418.75 160.6">
  <defs>
    <style>
      .cls-1 {
        fill: #dd5f17;
      }
    </style>
  </defs>
  <g id="Layer_2-2" data-name="Layer_2">
    <g>
      <path d="M48.44,54.39c19.94,11.07,60.83,24.94,60.83,24.94l-1.68,21.86,59.15,5.88,1.7-26.03s52.46-.81,68.24-2.75c22.77-2.81,74.65-15.62,95.72-23.96C355.6,45.14,418.75,0,418.75,0c0,0-23.62,73.13-34.84,97.83-8.24,18.15-57.72,46.11-57.72,46.11l-12.78-39.3-47,9.72-1.62,42.14s-61.57,3.49-83.46,4.05-71.07-3.2-91.56-12.66c-30.82-14.23-72.02-50-85.08-81.34C-2.25,49.91.64,3.35.64,3.35c0,0,29.82,41.06,47.81,51.05Z"/>
      <path class="cls-1" d="M.64,3.35s33.32,42.45,47.81,51.05c8.9,5.28,60.83,24.94,60.83,24.94,0,0-50.19-10.62-64.88-20.84-3.37-2.35-39.72-41.65-39.72-41.65L1.2,50.28S.21,34.85.04,29.98C-.19,23.03.64,3.35.64,3.35Z"/>
      <path class="cls-1" d="M108.46,106.25l-.86-5.06,57.45,5.71,3.41-25.86s69.53-2.9,124.29-16.89S418.75,0,418.75,0c0,0-63.14,57.81-147.3,73.47-28.84,5.37-101.04,11.24-101.04,11.24l-3.66,22.36-.75,3.49-57.54-4.3Z"/>
      <polygon class="cls-1" points="315.41 105.44 313.41 104.63 326.19 143.94 328.24 142.75 315.41 105.44"/>
    </g>
  </g>
</svg>