<?xml version="1.0" encoding="UTF-8"?>
<svg id="Layer_2" xmlns="http://www.w3.org/2000/svg" viewBox="0 0 180.32 169.82">
  <defs>
    <style>
      .cls-1 {
        fill: #cfd3da;
        stroke: #dcdcdc;
        stroke-miterlimit: 10;
        stroke-width: 1.08px;
      }

      .cls-2 {
        stroke: #715037;
        stroke-width: 3.32px;
      }

      .cls-2, .cls-3, .cls-4 {
        fill: none;
        stroke-linecap: round;
        stroke-linejoin: round;
      }

      .cls-5 {
        fill: #f89e1e;
      }

      .cls-6 {
        fill: #fff;
      }

      .cls-3 {
        stroke: #f46e25;
        stroke-width: 4.74px;
      }

      .cls-7 {
        fill: #715037;
      }

      .cls-8 {
        fill: #fbb963;
      }

      .cls-4 {
        stroke: #ef9b57;
        stroke-width: 5.21px;
      }
    </style>
  </defs>
  <g id="Layer_1-2" data-name="Layer_1">
    <g>
      <ellipse class="cls-8" cx="90.17" cy="145.39" rx="65.81" ry="23.47"/>
      <polygon class="cls-8" points=".54 51.74 24.36 145.39 155.97 145.39 177.54 53.47 .54 51.74"/>
      <line class="cls-4" x1="46.23" y1="159.92" x2="34.06" y2="90.88"/>
      <line class="cls-4" x1="133.74" y1="161.77" x2="146.71" y2="88.18"/>
      <ellipse class="cls-7" cx="89.04" cy="53.47" rx="88.5" ry="51.12"/>
      <ellipse class="cls-1" cx="89.04" cy="51.74" rx="88.5" ry="49.39"/>
      <ellipse class="cls-6" cx="89.04" cy="46.55" rx="88.5" ry="44.2"/>
      <ellipse class="cls-5" cx="88.38" cy="45.79" rx="78.75" ry="36.35"/>
      <line class="cls-3" x1="47.24" y1="74.75" x2="36.46" y2="14.31"/>
      <line class="cls-3" x1="132.08" y1="76.04" x2="138.56" y2="12.27"/>
      <line class="cls-3" x1="88.38" y1="9.44" x2="88.38" y2="82.15"/>
      <path class="cls-6" d="M90.17,2.35C41.29,2.35,1.67,22.14,1.67,46.55s39.62,44.2,88.5,44.2,88.5-19.79,88.5-44.2S139.04,2.35,90.17,2.35ZM89.51,82.15c-43.49,0-78.75-16.28-78.75-36.35S46.02,9.44,89.51,9.44s78.75,16.28,78.75,36.35-35.26,36.35-78.75,36.35Z"/>
      <path class="cls-2" d="M178.53,48.31c.09-.81.14-1.63.14-2.45,0-24.41-39.62-44.2-88.5-44.2S1.67,21.45,1.67,45.86c0,.82.05,1.64.14,2.45-.09.91-.14,1.82-.14,2.74,0,4.79,1.23,9.43,3.51,13.81l20.31,79.84c0,12.96,29.46,23.47,65.81,23.47s65.81-10.51,65.81-23.47l19.44-82.85c1.13-2.82,1.82-5.73,2.04-8.71l.08-.36h-.06c.04-.58.06-1.15.06-1.73,0-.92-.05-1.83-.14-2.74Z"/>
    </g>
  </g>
</svg>