<?xml version="1.0" encoding="UTF-8"?>
<svg id="Layer_2" xmlns="http://www.w3.org/2000/svg" viewBox="0 0 51.46 52.09">
  <defs>
    <style>
      .cls-1 {
        fill: #e6e6e6;
      }

      .cls-2 {
        fill: #ccc;
      }

      .cls-3 {
        fill: #f2f2f2;
      }
    </style>
  </defs>
  <g id="Layer_1-2" data-name="Layer_1">
    <g>
      <path class="cls-2" d="M51.46,28.07C51.46,14.27,38.81,0,25,0S0,11.19,0,25s13.33,27.09,27.13,27.09,24.33-10.21,24.33-24.02Z"/>
      <circle class="cls-1" cx="25" cy="25" r="25"/>
      <path class="cls-3" d="M23.44,38.52c1.6-2.48,8.36-3.81,10-6.27,1.33-2,1.27-7.67,3.23-9.05,1-.7,4.09-.94,4.87,0,1.53,1.84,1.02,7.41,0,9.57-.91,1.93-3.64,5.4-5.4,6.61-2.66,1.84-10.05,4.28-12.71,2.44-.68-.47-.45-2.61,0-3.31Z"/>
    </g>
  </g>
</svg>